<svg width="3386" height="5029" viewBox="0 0 3386 5029" fill="none" xmlns="http://www.w3.org/2000/svg">
<path d="M2259.94 2966.03C2488.76 3087.62 2669.2 3340.39 2723.75 3440.52C2777 3538.25 2725.91 3556.86 2725.91 3556.86C2760 3772.25 2777 4044.75 2575.21 4179.23C2572.46 4184.56 2544.33 4369.76 2542.4 4511.89C2541.74 4564.17 2478.11 4561 2463.08 4599.86C2442.13 4688.1 2433.79 4776.62 2417.39 4865.8C2413.93 4881.06 2415.95 4897.05 2423.09 4910.97C2443.03 4950.76 2442.83 4993.15 2392.66 5006.65C2257.82 5042.26 2115.85 5026.85 1979.79 5007.91C1921.88 4999.91 1889.3 4967.33 1874.71 4912.82C1852.09 4827.29 1828.65 4742.06 1805.52 4656.75C1805.45 4656.7 1805.38 4656.64 1805.32 4656.59C1708.27 4620.01 1691.27 4606.69 1682.46 4513.52C1658.67 4533.03 1672.5 4571.75 1646.47 4588.61C1631.66 4594.61 1630.99 4606.75 1629.07 4620.01C1615.08 4715.44 1606.77 4803.69 1584.77 4916.69C1574.94 4967.19 1564.47 4981.16 1514.27 4986.69C1323.77 5007.69 1203.27 5009.69 1007.96 5002.19C911.148 4998.48 963.274 4855.19 1050.54 4834.92C1066.67 4831.17 1075.57 4816.48 1067.95 4796.26C1045.78 4737.93 1007.96 4614.82 1007.96 4614.82C1007.96 4614.82 995.036 4585.39 979.816 4580.83C950.195 4570.24 934.717 4548.84 927.607 4518.33C909.242 4439.61 888.357 4361.4 863.326 4284.46C863.304 4284.14 863.275 4283.82 863.24 4283.5C853.351 4246.3 827.91 4223.18 796.749 4201.37C584.314 4051.67 612.412 3769.35 715.806 3561.9C722.397 3547.97 727.655 3536.35 718.176 3520.8C708.697 3505.24 718.175 3490.14 725.137 3476.36C770.774 3367.19 980.774 3122.19 1195.77 2988.69C1538.62 2775.81 1890.6 2769.78 2259.94 2966.03Z" fill="#4E1B0B"/>
<path d="M1762.82 4603.27C1743.08 4595.97 1726.93 4580.52 1718.75 4561.13C1676.16 4475.94 1819.37 4458.16 1874.57 4458.49C1874.57 4458.49 1805.4 4456.34 1774.81 4439.09C1688.65 4435.6 1582.62 4431.68 1525.1 4355.26C1499.18 4312.75 1518.17 4286.25 1545.5 4286.25C1612.64 4286.25 1892 4288.25 2238 4097.25C2251.52 4089.79 2259.29 4118.28 2263.14 4127.76C2295.88 4207.38 2334.24 4278.87 2398.51 4336.96C2415.76 4357.27 2459.8 4323.12 2452.5 4362.75C2435.44 4465.11 2395.17 4570.17 2289.43 4602.68C2121.97 4654.19 1928.34 4673.25 1762.82 4603.27Z" fill="#62544A"/>
<path d="M2133.08 3362.02C2145.09 3386.36 2161.65 3444.68 2171 3468.75C2187.3 3589.04 2205 3637.75 2229 3700.97C2237.72 3723.94 2260.5 3729.75 2287 3729.75C2295 3783.25 2266.6 3990.46 2221.58 4016.6C2058.35 4111.89 1877.25 4172.56 1689.56 4194.85C1525.31 4214.48 1361.42 4215.66 1199.24 4177.52C1097.22 4154.27 1000.41 4112.26 913.753 4053.63C863.427 4019.92 805.311 3946.66 796.004 3885.08C808.099 3859.22 849.638 3881.73 861.999 3893.25C1208.36 4146.55 2033.5 4158.25 2133.08 3713.25C2162.33 3582.57 2135.88 3478.07 2106 3370.25C2099.63 3346.64 2122.43 3338.85 2133.08 3362.02Z" fill="#C5CBCE"/>
<path d="M1430 4400.75C1430 4400.75 1383.13 4362.36 1363.43 4339.18C1184.41 4253.71 1005.94 4195.31 847.843 4072.44C830.048 4058.56 809.74 4076.76 820.492 4103.52C878.281 4247.99 937.471 4392.49 975.004 4544.32C1084.5 4607.25 1283.31 4619.64 1407.86 4616.15C1449.5 4501.75 1312.22 4397.47 1292 4384.25C1329.08 4401.48 1430 4400.75 1430 4400.75Z" fill="#62544A"/>
<path d="M2353.63 3723.27C2338.5 3733.42 2313.12 3765.25 2313.12 3801.17C2609 3594.35 2465.61 4246.25 2284.83 3983.28C2262.02 4069.18 2355.59 4253.67 2401 4268.25C2441.5 4281.25 2472.5 4245.75 2478.78 4221.22C2486.21 4192.23 2546.45 4169.15 2584.31 4133.26C2741.04 3984.72 2733.3 3775.38 2699.84 3579.89C2647 3552.25 2382.41 3703.94 2353.63 3723.27Z" fill="#E8997D"/>
<path d="M2284.83 3983.26C2294.21 3922.64 2303.64 3861.94 2313.12 3801.16C2349.44 3733.06 2473.63 3685.44 2541.5 3655.75C2555.5 3761.25 2529 4140.83 2375.5 4114.12C2318.89 4104.27 2275.81 4052.97 2284.83 3983.26Z" fill="#FCC8AA"/>
<path d="M2444.57 4364.29C2449.73 4348.33 2441.03 4346.18 2429.01 4352.88C2360.93 4390.33 2266.11 4170.82 2256.61 4128.64C2248.67 4105.95 2238.99 4105.63 2226.69 4125.31C2212.39 4147.48 2207.62 4123.21 2190.26 4134.79C2019.6 4254.26 1750.62 4300.45 1548.27 4300.45C1505.87 4304.76 1532.82 4340.95 1539.27 4371.19C1514.1 4348.16 1481.66 4302.65 1472.73 4269.72C1469.1 4256.61 1470.14 4251.65 1484.95 4250.02C1746.19 4220.99 2042.67 4216.53 2251.5 4033.26C2251.5 4105.45 2347.35 4384.2 2455.9 4283.2C2473.41 4266.79 2474.71 4297.12 2474.71 4297.12C2474.71 4297.12 2451.97 4490.85 2452.56 4529.8C2454.39 4649.7 2107.09 4647.5 2035.27 4648.19C2293.5 4614.75 2418 4548.75 2444.57 4364.29Z" fill="#553C33"/>
<path d="M2423.61 4666.37L2406.58 4740.52C2406.58 4740.52 2251.38 4751.03 2151.77 4753.19C2040.9 4755.6 1938.67 4750.79 1867.82 4750.49C1859.82 4726.5 1852.04 4702.43 1843.75 4678.58C1840.71 4669.92 1844.42 4666.96 1852.19 4666.14C2032.77 4687.69 2234.69 4683.01 2403.47 4622.97C2410.87 4620.23 2420.2 4612.6 2426.65 4618.08C2435.63 4625.9 2425.19 4655.28 2423.61 4666.37Z" fill="#E8997D"/>
<path d="M1407.71 4616.16C1420 4480.75 1302.5 4416.25 1257 4368.75C1291 4376.25 1330.1 4380.91 1430 4400.75C1512 4457.55 1547.53 4450.24 1619.73 4458.05C1651 4461.42 1644 4507.75 1632.5 4548.25C1620.6 4590.14 1492 4608.25 1407.71 4616.16Z" fill="#553C33"/>
<path d="M1049.06 4655.33L1034.25 4609.49C1221.76 4665.33 1408.15 4672.73 1599.66 4615.42C1596.42 4631.6 1586.5 4683.25 1581 4712.75C1571.98 4761.11 1465.52 4740.92 1431.99 4728.84C1408.64 4720.42 1437.86 4694.23 1411.5 4692.75C1309.97 4687.05 1176.95 4687.84 1078.83 4653.85C1068.61 4650.22 1059.13 4654.15 1049.06 4655.33Z" fill="#E8997D"/>
<path d="M1049.06 4655.33C1053.21 4642.07 1064.73 4644.76 1076 4646.75C1124.5 4655.33 1299.96 4679.05 1414.31 4683.25C1443.93 4684.36 1436.97 4728.83 1436.97 4728.83C1322 4739.25 1190.73 4734.11 1082.66 4722.62C1072.48 4722.51 1068.98 4705.24 1068.98 4705.24C1068.98 4705.24 1055.88 4671.99 1049.06 4655.33Z" fill="#FCC8AA"/>
<path d="M1449.5 4265.42C1469.05 4321.56 1501.38 4371.37 1551 4406.25C1565.83 4416.66 1555.11 4428.65 1540.5 4426.75C1471.36 4417.75 1385 4347.25 1337.11 4265.42C1330.76 4254.58 1339.99 4246.2 1352 4243.83C1380.17 4238.29 1441.66 4244.32 1449.5 4265.42Z" fill="#553C33"/>
<path d="M1084.5 4749.25C1079.64 4734.75 1072.71 4715.16 1072.71 4715.16C1195.07 4726.77 1314.62 4724.64 1436.96 4728.83C1458.14 4728.83 1449.62 4742.94 1449.18 4762.71C1448.73 4782.49 1437.11 4786.26 1419.93 4785.67C1325.08 4782.75 1210.02 4780.88 1119 4772.6C1100.62 4770.92 1090.96 4768.51 1084.5 4749.25Z" fill="#FDFDFD"/>
<path d="M2553.72 4200.92C2532.24 4302.67 2522.62 4396.77 2518.62 4500.11C2517.58 4526.92 2494.26 4554.24 2468.12 4557.13C2460.12 4558.02 2458.71 4553.13 2459.45 4547.06C2471.74 4447.38 2474.26 4346.44 2501.88 4248.54C2510.33 4219.36 2518.92 4199.89 2553.72 4200.92Z" fill="#553C33"/>
<path d="M1436.96 4728.84L1581 4712.75C1579.21 4720.15 1575.9 4736.2 1572 4748.75C1567.1 4764.52 1566.84 4770.04 1551.5 4775.25C1515.64 4787.43 1450.5 4785.75 1422 4785.75C1433.19 4767.68 1437.79 4750.09 1436.96 4728.84Z" fill="#C5CBCE"/>
<path d="M1774.81 4439.09L1883.97 4450.34C1898.5 4451.75 1890.78 4467.5 1879.6 4466.56C1836.78 4466.56 1693.94 4476.88 1714.28 4551.19C1705.17 4524.9 1701.2 4508.55 1691.79 4482.41C1686.02 4466.19 1692.39 4460.71 1708.23 4461.16C1724.79 4461.58 1791.31 4471.64 1774.81 4439.09Z" fill="#553C33"/>
<path d="M2681 3452.06C2648.41 3459.82 2548.62 3483.83 2529 3491.75C2328.92 3491.75 2354.5 3074.93 2156 3163.75C1770.5 3336.25 1450 3331.63 1121.41 3136.25C1108.6 3128.63 1106.08 3112.74 1121.41 3092.31C1161.61 3039.23 1193.5 3021.75 1277 2976.25C1333.72 3005.18 1374.32 3130.71 1467 3174.69C1577.29 3227.03 1662.94 3219.5 1779.5 3183.19C1905.12 3144.06 1944.35 3034.76 2046.11 2977.22C2111.08 2967.33 2208.05 2962.96 2289.64 3013.88C2485.9 3136.36 2655.14 3364.03 2687.43 3439.25C2689.57 3444.25 2688.5 3450.28 2681 3452.06Z" fill="#C5CBCE"/>
<path d="M1383.5 2983.43L1908.12 2988.41C1840.99 3158.72 1460.58 3199.74 1383.5 2983.43Z" fill="#E8997D"/>
<path d="M1165.95 3044.35C1165.03 3064.29 1096.17 3111.05 1126.37 3120.08C1496 3315.75 1755.25 3300.1 2126.5 3153.75C2314.36 3079.69 2476.54 3217.1 2529 3491.75C2488.66 3533.99 2407.11 3552.94 2357.26 3585.52C2324.25 3607.09 2286.23 3643.59 2269.5 3653.53C2261.89 3658.05 2255.32 3655.44 2250.72 3648.75C2236.31 3627.74 2175.15 3526.82 2170.71 3334.75C2171.18 3355.29 2165.74 3351.3 2171 3468.75L2113.91 3351.28C2172.32 3558.67 2261.52 3818.33 2037.11 3960.54C1665.12 4195.95 1164.74 4158.41 826.222 3886.85C815.484 3878.26 807.041 3877.82 796.599 3884.93C790.858 3878.76 789.846 3869.28 794.156 3862.05C828.148 3780.58 830.073 3690.98 861.991 3609C913.996 3469.32 989.934 3343.48 1067 3216.75C1067 3151.75 815.998 3489.75 815.998 3489.75C803.5 3481.75 792.5 3474.25 779.592 3464.25C774.551 3460.34 770.288 3453.05 774.499 3447.25C937.5 3222.75 1088.41 3093.51 1165.95 3044.35Z" fill="#FDFDFD"/>
<path d="M735.819 3586.37C772.178 3553.3 821.698 3631.64 808.601 3663.42C786.384 3730.07 789.103 3803.1 757.999 3867.75C753.556 3874.49 755.873 3882.26 755.428 3889.44C755.141 3894.08 716.908 3953.08 709.884 3957.5C660.269 3918.23 716.645 3724.02 728.176 3674.6C734.967 3645.05 726.297 3614.93 735.819 3586.37Z" fill="#FCC8AA"/>
<path d="M735.82 3586.37C735.82 3586.37 743.594 3611.46 746.094 3628.02C755.065 3687.48 724.28 3719.57 717.582 3779.32C709.847 3848.32 700.327 3897.81 713.064 3957.06C717.772 3993.19 732.772 4079.69 740.465 4107.09C672.926 4019.71 659.522 3918.84 672.038 3813.68C679.846 3740.26 735.82 3586.37 735.82 3586.37Z" fill="#FDFDFD"/>
<path d="M816 3489.75C939.5 3266.75 1092 3158.25 1113.5 3147.25C1098 3170.25 1084 3190.75 1067 3216.75C1054.18 3179.09 894 3472.25 879.693 3495.32C866.535 3516.54 835.079 3504.52 816 3489.75Z" fill="#C5CBCE"/>
<path d="M830.521 4006.6C912.5 4127.25 1146.5 4196.75 1260.5 4226.75C1307.78 4239.19 1312 4295.25 1363.43 4339.19C1173 4286.25 980 4198.75 830.438 4074.93C821.625 4079.37 838.149 4101.76 818.524 4099.91C810.015 4082.85 818.524 4035.25 830.521 4006.6Z" fill="#553C33"/>
<path d="M758.001 3867.75C758.001 3902.11 773.341 3930.55 790.004 3959.21C798.52 3974.02 811.555 3986.83 811.555 4005.57C811.591 4005.72 811.626 4005.88 811.662 4006.04C791.301 4056.47 790.569 4116.38 812.781 4167.16C812.712 4167.52 812.665 4167.75 812.665 4167.75C812.568 4167.69 752.508 4127.69 740.091 4107.1C704.283 4047.71 707.219 3899.94 707.224 3899.65C736.11 3903.31 741.303 3881.42 758.001 3867.75Z" fill="#E8997D"/>
<path d="M816.762 4057.52C845.454 4185.57 968.429 4388.21 974.851 4544.12C974.851 4544.12 960.327 4531.92 959.003 4522.64C946.212 4452.54 887.975 4290.2 851.569 4194.29C851.568 4194.28 851.565 4194.28 851.563 4194.28C851.565 4194.28 851.568 4194.28 851.571 4194.27C831.577 4155.26 806.842 4103.3 816.762 4057.52Z" fill="#C5CBCE"/>
<path d="M809.167 3662.2C809.167 3662.2 804.106 3646.22 790.519 3629.88C776.626 3613.17 735.82 3586.37 735.82 3586.37L751.981 3545.34L827.814 3605.02L809.167 3662.2Z" fill="#E8997D"/>
<path d="M2384.25 4900.39C2394.25 4916.83 2403.17 4924.01 2409.69 4942.82C2442.25 5040.49 2014.38 4987.77 2014.38 4987.77L2018.28 4927.19C2018.28 4927.19 2366.86 4873.64 2384.25 4900.39Z" fill="#C5CBCE"/>
<path d="M2399.2 4763.56C2391.78 4773.94 1998.73 4795.94 1889.27 4780.95C1883.96 4779.21 1878.84 4776.45 1874.07 4772.76C1871.77 4760.51 1860.88 4732.57 1860.88 4732.57C1977.74 4743.75 2028.28 4749.31 2153.02 4743.75C2282.8 4737.98 2411.6 4718.89 2411.6 4718.89C2411.6 4718.89 2406.62 4753.19 2399.2 4763.56Z" fill="#FDFDFD"/>
<path d="M2018.27 4927.19L1991.05 4921.78C2007.86 4865.05 2046.29 4832.17 2103.54 4820.1C2156.41 4809.21 2210.55 4805.69 2264.39 4809.66C2310.23 4812.77 2389.23 4854.39 2389.23 4854.39L2384.25 4900.39C2318.37 4854.39 2264 4834.57 2184.1 4843.2C2111.08 4851.1 2062.32 4860.76 2018.27 4927.19Z" fill="#553C33"/>
<path d="M1998.27 4923.19L1987 4985.25C1987 4985.25 1935.29 4976.43 1923.73 4951.47C1908.92 4919.78 1902.55 4885.27 1893.07 4851.94C1887.67 4832.98 1878.29 4814.61 1883.26 4804.4C1885.75 4798.45 1913.96 4804.4 1913.96 4804.4C1905.74 4815.73 1911.74 4824.61 1918.62 4834.02C1941.8 4865.79 1998.27 4923.19 1998.27 4923.19Z" fill="#C5CBCE"/>
<path d="M2101.99 4826.99C2107.39 4826.25 2112.95 4825.88 2118.2 4824.62C2206.93 4803.93 2327.07 4818.34 2386.74 4875.53C2391.71 4838.23 2394.29 4825.68 2399.18 4784.95C2362.15 4800.8 2275.65 4800.11 2275.65 4800.11C2275.65 4800.11 2082.29 4811 1985.5 4811C1993.08 4840.02 2079.84 4821.94 2101.99 4826.99Z" fill="#C5CBCE"/>
<path d="M991.736 4966.29C948.5 4835.75 1271.7 4772.41 1331 4915.19C1314.77 4939.92 1028.04 4982.77 991.736 4966.29Z" fill="#FDFDFD"/>
<path d="M991.738 4966.29C991.738 4966.29 1032.84 4973.75 1032.84 4942.37C1032.84 4932.89 1044.76 4932.67 1053.2 4932.89C1146.87 4935.23 1238.08 4923.39 1331 4915.19C1341.5 4941.75 1341.5 4974.25 1341.5 4974.25C1261.65 4977.9 1053.35 4978.85 1011 4978.42C1000.91 4978.32 997.18 4975.32 991.738 4966.29Z" fill="#C5CBCE"/>
<path d="M1423.29 4841.96C1420.46 4880.11 1353 4910.19 1353 4910.19C1353 4910.19 1148.38 4846.02 1108.38 4810.04C1096.08 4792.04 1099.19 4786.12 1122.15 4788.71C1139.53 4790.63 1287 4797.75 1287 4797.75C1287 4797.75 1426.56 4797.75 1423.29 4841.96Z" fill="#FDFDFD"/>
<path d="M1530.5 4797.75C1562.5 4793.75 1563.5 4818.6 1563.5 4835.25C1563.5 4856.11 1560.5 4886.75 1552.57 4910.75C1545.75 4931.39 1538.29 4947.35 1517.61 4954.07C1473.39 4968.46 1368 4972.75 1368 4972.75C1368 4972.75 1362.94 4933.02 1353 4910.19C1361.96 4899.98 1439.43 4815.5 1386 4815.25C1369.08 4815.25 1286 4818.75 1287 4797.75C1287 4797.75 1484.3 4803.53 1530.5 4797.75Z" fill="#C5CBCE"/>
<path d="M2332 3603.75C2393 3558.25 2461.04 3519.11 2529 3491.75C2529 3491.75 2537.29 3535.55 2535.96 3547.68C2534.39 3562.49 2530.15 3571.3 2516.67 3577.3C2487.47 3590.92 2458.79 3605.81 2429.74 3620.03C2416.04 3626.16 2367.36 3675.43 2354.81 3670.09C2342.33 3664.76 2336.34 3616.04 2332 3603.75Z" fill="#553C33"/>
<path d="M1331 4915.19C1304.08 4855.04 1131.5 4833.75 1098 4843.75C1114.9 4836.97 1117.47 4825.77 1108.3 4810.03C1192.06 4826.57 1303.25 4828.36 1353 4910.19L1331 4915.19Z" fill="#553C33"/>
<path d="M2331.49 3555.15C2314.38 3578.56 2299.42 3598.7 2284.98 3619.14C2233.3 3692.45 2284.75 3571.98 2331.49 3555.15Z" fill="#C5CBCE"/>
<path d="M2018.27 4927.19C2023.16 4883.42 2065.5 4857.62 2090.51 4849.21C2138 4833.25 2226 4825.25 2284.53 4841.81C2327.99 4854.1 2362.92 4872.62 2384.25 4900.39C2367.69 4971.51 2054.37 4944.45 2018.27 4927.19Z" fill="#FDFDFD"/>
<path d="M1985.5 4811C2019.12 4821.73 2087.84 4816.92 2087.84 4816.92C2087.84 4816.92 2107.32 4809.51 2101.99 4826.99C2050.15 4839.8 2015.82 4872.09 1998.27 4923.19C1956.05 4914.12 1927.11 4856.94 1902.56 4824.77C1890.85 4809.44 1900.78 4806.33 1913.66 4804.77L1985.5 4811Z" fill="#FDFDFD"/>
<path d="M2103.3 4882.99C2145.18 4845.09 2213.03 4842.56 2259.94 4879.62C2187.9 4859.4 2172.82 4861.93 2103.3 4882.99Z" fill="#C5CBCE"/>
<path d="M1047.99 4905.36C1072.12 4881.9 1097.97 4886.81 1125 4909.75C1083.49 4897.23 1088.05 4892.33 1047.99 4905.36Z" fill="#C5CBCE"/>
<path d="M1067.74 4879.26C1096.99 4841.36 1148.11 4863.34 1180.87 4900.39C1130.56 4880.18 1116.3 4858.2 1067.74 4879.26Z" fill="#C5CBCE"/>
<path d="M2143.08 4907.85C2174.32 4882.58 2224.94 4880.9 2259.94 4905.6C2206.19 4892.13 2194.95 4893.81 2143.08 4907.85Z" fill="#C5CBCE"/>
<path d="M2987.58 584.045C2977.88 577.009 2955.96 568.271 2982.91 550.868C3094.13 479.163 3137.82 351.574 3141.32 225.025C3141.96 207.058 3127.49 211.214 3116.09 215.991C3033.35 250.661 2729.54 437.699 2705.21 407.344C2779.19 321.945 2820.12 188.491 2815.53 71.2245C2815.1 60.2744 2814.22 48.7263 2800 57.6541L2538.14 345.956C2397.59 19.2206 1073.59 -384.279 307.813 749.22L295.087 915.221C182.087 1051.22 123.087 1331.22 164.125 1537.49C194.528 1690.31 277.623 1779.25 362.65 1883.58H362.51C360.14 1893.73 350.747 1894.43 343.404 1897.06C32.5879 2008.22 82.5879 2610.75 408.087 2654.72C488.977 2665.65 501.934 2664.68 546.088 2698.22C1189.09 3186.72 2283.59 3111.22 2730.09 2757.72C2742.7 2747.74 2759.65 2731.81 2778.09 2741.22C3214.59 2905.22 3599.59 2295.72 3175.9 2043.02C3155.93 2031.11 3191.55 1999.41 3200.05 1988.59C3522.89 1578.52 3405 889.052 2987.58 584.045Z" fill="#4E1B0B"/>
<path d="M43.7104 703.134C30.6557 696.546 20.8022 688.537 10.313 685.22C-29.4124 753.221 176.363 786.607 191.082 788.743C255.023 799.65 287.552 851.05 347.313 866.72C380.119 875.354 369.473 882.062 354.598 899.161C345.933 909.01 325.716 903.9 323.716 922.488C260.697 1057.79 187.088 1221.22 205.893 1377.19C237.99 1413.17 331.365 1529.23 441.588 1532.72C499.588 1534.56 554.088 1297.22 719.088 1279.22C719.088 1279.22 597.088 1254.22 527.588 1226.72C1070.59 1182.5 2580.59 866.72 2259.09 175.221C2112.59 110.221 1882.59 39.6189 1648.09 55.2205C1155.66 87.9815 754.287 335.375 411.813 679.22C191.274 636.801 109.813 736.492 43.7104 703.134Z" fill="#564236"/>
<path d="M11.8137 685.721C2.63073 681.573 1.11881 687.133 0.378247 694.539C-10.3187 816.895 208.725 888.028 295.088 915.221C298.338 924.122 300.911 929.754 307.563 936.406C325.997 942.044 420.895 877.42 368.067 862.127C335.334 852.648 304.23 839.392 279.199 815.102C255.946 792.885 225.286 785.479 196.182 780.814C142.65 773.382 90.3484 758.838 40.6647 737.565C20.0031 728.382 3.74157 712.455 11.8137 685.721Z" fill="#50362A"/>
<path d="M411.812 679.221C605.812 401.721 1077.31 55.2749 1648.2 55.2749C1127.31 118.721 668.312 436.221 411.812 679.221Z" fill="#FCFCFC"/>
<path d="M345.037 1157.46C343.186 1190.64 335.118 1246.07 358.589 1251.72C412.589 1264.72 316.589 1468.72 416.798 1515.37C442.835 1527.5 593.195 1336.47 481.818 1295.43C504.089 1279.22 603.589 1264.72 719.089 1279.22C636.681 1348.06 552.903 1445.46 552.089 1558.22C483.386 1636.46 445.235 1736.22 423.166 1856.03C412.576 1847.37 409.051 1852.07 404.089 1840.22C399.667 1859.1 388.089 1866.38 388.089 1866.38C321.861 1808.09 273.791 1734.21 240.089 1652.72C201.089 1558.42 193.589 1428.72 201.089 1378.72C211.809 1375.18 228.71 1343.18 239.356 1354.45C291.096 1409.22 306.865 1177.33 345.037 1157.46Z" fill="#50362A"/>
<path d="M227.882 1596.47C234.827 1642.17 231.374 1638.76 215.312 1600.39C142.792 1427.18 193.854 1093.77 314.829 921.543C319.885 914.345 356.452 883.759 337.046 925.248C222.698 1169.72 189.166 1341.67 227.882 1596.47Z" fill="#FCFCFC"/>
<path d="M2801.55 2014.81C2793.62 2010.37 2784.59 2019.42 2782.59 2028.29C2652.59 2604.72 1783.09 2585.22 1694.86 2017.25C1670.77 1935.96 1527.02 1974.24 1535.59 1940.22C1542.28 1913.67 1664.87 1934.99 1683.9 1928.31C1651.92 1837.39 1502.16 1866.06 1484.54 1942.08C1359.69 2480.55 811.588 2553.22 494.185 2187.9C429.611 2380.45 488.36 2469.31 494.186 2480.55C713.663 3061.9 2193.03 3121.57 2722.83 2706.56C2746.25 2688.22 2777.26 2684.65 2801.31 2688.22C2903.31 2763.22 3110.81 2736.72 3250.62 2555.56C3356.71 2418.11 3336.32 2218.43 3219.67 2112.04C3057.29 1964.09 2904.99 2190.2 2818.06 2309.48C2828.95 2228.72 2855.3 2131.17 2856.94 2045.39C2857.31 2025.47 2853.59 2012.22 2828.95 2016.29C2817.85 2018.12 2816.59 2023.22 2801.55 2014.81Z" fill="#FCC8AA"/>
<path d="M2723.05 2706.26C2723.05 2706.26 2850.66 2583.66 2879.23 2480.25C2892.23 2433.19 2888.07 2404.57 2894.12 2356.13C2922.59 2128.22 3214.06 2024.13 3287.06 2256.52C3353.09 2466.72 3195.81 2663.22 2990.17 2722.33C2918.21 2736.74 2843.5 2726.84 2777.78 2694.19C2755.56 2683.86 2723.05 2706.26 2723.05 2706.26Z" fill="#EA997C"/>
<path d="M500.089 2195.22C500.089 2195.22 469.589 2150.22 459.756 2119.45C407.849 2289.9 417.501 2459.61 530.183 2597.56C658.342 2755.83 947.382 2875.43 664.299 2679.91C417.413 2509.39 500.089 2195.22 500.089 2195.22Z" fill="#FCFCFC"/>
<path d="M2978.7 2047.72C2919.96 1960.75 2887.72 1920.8 2861.09 1816.26C2800.59 1578.72 2707.59 1359.72 2574.09 1133.22C2574.09 1133.22 2851.97 1053.87 3126.09 768.22C3205.66 876.128 3267.59 994.221 3312.09 1149.22C3353.57 1293.72 3334.26 1672.94 3194.09 1936.22C3154.03 2011.94 3163.41 2027.14 3088.09 2026.69C3059.53 2026.52 3056.85 2018.98 3067.64 1989.9C3078.42 1960.8 3097.53 1922.32 3094.22 1906.32C3061.41 1955.56 3042.77 2007.34 3007.56 2047.72C2995.81 2061.2 2987.85 2061.28 2978.7 2047.72Z" fill="#50362A"/>
<path d="M3125.4 1044.45C3101.71 1038.38 3099.03 1052.82 3093.76 1067.93C3066.7 1145.07 2991.18 1268.36 2919.09 1344.61C2861.62 1405.39 2843.83 1393.67 2791.8 1339.22C2726 1270.36 2661.54 1201.14 2574.09 1133.22C2574.09 1133.22 2368.59 868.72 2283.09 833.22C2338.09 797.221 2320.09 778.221 2320.09 778.221C2320.09 778.221 2641.48 478.295 2718.09 492.221C2853.3 516.797 2978.24 609.476 3071.71 705.052C3099.95 733.738 3259.59 887.22 3125.4 1044.45Z" fill="#564236"/>
<path d="M2799.78 57.7314C2807.59 244.721 2678.25 402.221 2637.74 448.671C2688.98 458.752 2757.59 421.221 2797.09 403.221C2931.09 439.221 3054.09 392.721 3112.09 336.221C3088.32 417.682 3024.17 503.177 2954.41 548.499C2946.56 553.535 2941.45 557.164 2933 551.832C2847.61 497.925 2718.51 464.966 2616.85 463.853C2634.26 490.808 2668.59 481.721 2718.09 492.221C2630.59 623.721 2547.59 737.221 2320.09 778.221C2268.28 740.596 2072.09 929.221 1929.59 1020.38C1602.9 1229.38 1379.59 1232.22 1379.59 1232.22C1379.59 1232.22 1541.59 1167.46 1660.27 1059.56C1526.71 1126.63 1241.19 1193.73 1168.39 1189.68C908.588 1175.22 817.088 1232.22 720.204 1243.66C624.192 1255 473.554 1223.68 473.449 1223.67C703.866 1202.05 990.588 1123.72 1162.1 1020.38C1123.88 1012.98 1094.04 1038.01 1058.42 1032.75C1416.4 618.68 2259.09 1066.52 2259.09 175.221C2559.91 311.221 2500.09 457.721 2613.15 466C2572.09 436.721 2544.09 377.221 2538.65 346.402C2583.86 264.858 2704.76 109.221 2799.78 57.7314Z" fill="#50362A"/>
<path d="M3312.09 1149.22C3334.09 1205.72 3421.09 1603.72 3194.09 1936.22C3285.09 1698.36 3340.87 1522.72 3312.09 1149.22Z" fill="#564236"/>
<path d="M2551.76 363.805C2593.45 270.791 2660.18 196.735 2736.9 130.381C2685.43 215.915 2627.82 296.71 2551.76 363.805Z" fill="#564236"/>
<path d="M493.005 2620.29C425.911 2513.75 413.323 2488.68 396.587 2407.22C325.237 2287.08 409.813 2186.22 409.813 2186.22C399.616 2160.44 403.984 2133.35 430.813 2121.22C450.226 2074.43 430.157 2030.09 418.134 1983.56C269.371 1920.99 191.021 2100.79 182.588 2216.72C177.64 2284.74 186.325 2365.05 218.088 2436.22C260.574 2531.42 344.434 2610.18 493.005 2620.29Z" fill="#EA997C"/>
<path d="M396.581 2407.22C331.311 2374.72 288.813 2197.22 409.807 2186.22C386.813 2265.72 388.896 2370.86 396.581 2407.22Z" fill="#BD4F2E"/>
<path d="M259.799 2188.03C273.889 2096.54 381.313 2064.22 430.813 2121.22C422.321 2142.22 415.623 2164.35 409.813 2186.22C372.813 2116.22 324.529 2108.66 259.799 2188.03Z" fill="#8C2505"/>
<path d="M401.536 1944.98C146.087 1944.98 145.587 2334.72 218.087 2436.22C159.587 2231.72 204.587 1944.98 418.122 1983.56C411.309 1971.12 419.161 1944.98 401.536 1944.98Z" fill="#FCFCFC"/>
<path d="M3128.95 221.712C2967.59 314.721 2894.63 346.221 2797.09 403.221C3002.09 492.221 3112.09 336.221 3112.09 336.221C3112.09 336.221 3128.95 268.721 3128.95 221.712Z" fill="#564236"/>
<path d="M2709.95 1668.45C2672.22 1608.33 2626.84 1553.36 2574.94 1504.93C2568.94 1499.16 2565.39 1494.86 2572.2 1486.64C2601.83 1451.09 2591.53 1415.47 2568.65 1382.3C2489.67 1267.81 2328.27 1182.76 2186.37 1206.34C2064.8 1220.99 2059.68 1346.8 2176.23 1379.26C1906.81 1416.73 1735.67 1554.25 1687.46 1829C1626.21 1788.79 1561.12 1785.31 1491.8 1817.45C1473.52 1623.08 1355.5 1449.59 1168.84 1380.89C1154.33 1375.67 1151.69 1372.7 1167.95 1367.93C1651.09 1248.72 1900.72 1142.97 2204.09 894.221C2229.8 873.141 2311.09 896.221 2311.09 896.221C2311.09 896.221 2506.09 1032.22 2724.31 1647.49C2725.8 1657.19 2725.2 1668.97 2709.95 1668.45Z" fill="#FCC8AA"/>
<path d="M2262.53 2398.52C2521.61 2383.06 2732.03 2184.99 2729.33 1925.47C2726.7 1672.84 2514.09 1472.58 2262.53 1449.22C1963.59 1421.46 1754.68 1615.45 1736.02 1898.42C1717.37 2181.39 1979.45 2415.41 2262.53 2398.52Z" fill="#FCC8AA"/>
<path d="M948.668 1415.77C910.455 1425.77 868.762 1441.1 828.994 1432.66C751.088 1466.22 640.088 1544.22 568.835 1606.98C557.588 1749.22 539.588 2006.72 530.104 2128.12C566.088 2214.72 764.088 2358.72 949.588 2358.72C1206.77 2358.72 1405.59 2128.12 1434.84 1898.22C1466.58 1648.72 1217.91 1369.68 948.668 1415.77Z" fill="#FCC8AA"/>
<path d="M1286.36 1241.66C1550.34 1317.25 1965.28 1079.28 2167.63 895.451C2241.09 828.721 2311.09 896.221 2311.09 896.221C2311.09 896.221 2249.4 881.221 2195.09 931.721C1934.59 1173.91 1545.09 1331.22 1167.88 1367.93C1233.52 1332.76 1296.26 1287.76 1227.12 1210.93C1314.65 1193.45 1401.89 1181.97 1484.69 1151.69C1497.42 1145.72 1336.68 1228.73 1286.36 1241.66Z" fill="#EA997C"/>
<path d="M2373.09 958.221C2478.09 1064.72 2700.59 1375.22 2754.16 1707.33C2763.34 1656.67 2754.75 1606.46 2752.38 1555.81C2795 1666.13 2839.69 1778 2857.1 1895.65C2859.24 1911.28 2855.17 1913.57 2841.4 1909.8C2827.35 1904.84 2811.99 1905.13 2798.15 1910.61C2784.74 1910.61 2782.82 1902.1 2781.63 1890.54C2774.23 1811.38 2747.12 1738.28 2709.8 1668.37C2567.09 1254.22 2431.59 1060.72 2373.09 958.221Z" fill="#EA997C"/>
<path d="M1519.59 2021.72C1522.31 2032.99 1505.42 2055.51 1515.12 2062.94C1522.47 2067.27 1532.56 2062.48 1536.49 2055.58C1544.6 2041.33 1524.49 2031.28 1528.6 2017.32C1574.74 1998.22 1613.91 2014.36 1650.5 2041.76C1765.27 2127.47 1631.8 2294.84 1509.72 2233.79C1426.59 2192.22 1414.59 2062.94 1519.59 2021.72Z" fill="#EA997C"/>
<path d="M568.834 1606.68C599.032 1614.74 568.834 1765.28 572.167 1867.29C575.531 1970.26 558.515 2045.61 530.103 2127.74C530.103 2127.74 495.075 2059.09 507.886 2016.66C547.035 1883.03 492.504 1731.52 568.834 1606.68Z" fill="#FCFCFC"/>
<path d="M552.088 1558.22C583.088 1439.22 687.754 1274.32 843.952 1262.1C817.378 1295.25 778.598 1336.38 781.079 1381.11C781.967 1398.51 769.007 1400.22 760.121 1406.36C730.602 1424.32 652.588 1456.22 552.088 1558.22Z" fill="#EA997C"/>
<path d="M1695.09 2017.1C1632.59 1941.22 1506.59 1988.22 1496.77 1962.9C1488.98 1942.81 1515.1 1931.24 1535.09 1923.22C1618.59 1889.72 1684.13 1928.16 1684.13 1928.16L1695.09 2017.1Z" fill="#EA997C"/>
<path d="M2879.98 2039.32C2889.82 2046.13 2917.31 2084.72 2931.81 2102.72C2913.89 2121.9 2883.31 2155.22 2864.81 2177.22C2872.61 2138.43 2876.78 2078.76 2879.98 2039.32Z" fill="#50362A"/>
<path d="M1868 921.964C1892.62 892.565 2073.97 760.704 2092.39 789.996C2104.74 809.64 1916.41 930.567 1868 921.964Z" fill="#564236"/>
<path d="M1295.39 2377.68C1322.09 2541.22 1771.09 2563.72 1846.82 2420.93C1869.36 2441.67 1865.77 2448.8 1851.09 2464.22C1704.09 2580.72 1396.19 2567.69 1279.55 2418.78C1263.33 2398.2 1265.25 2386.13 1295.39 2377.68Z" fill="#8C2505"/>
<path d="M1518.75 2029.03C1501.52 2032.01 1489.14 2043.34 1475.25 2056.22C1460.48 2069.93 1457.29 2060.33 1469.33 2047.72C1533.36 1980.71 1624.51 1987.7 1674.92 2061.22C1682.25 2071.9 1682.12 2073.67 1670.98 2065.72C1628.63 2035.51 1586.01 1998.14 1529.2 2022.51C1528.22 2027.19 1523.33 2030.19 1518.75 2029.03Z" fill="#934518"/>
<path d="M3199.98 2438.41C3191.05 2551.98 2986.69 2610.84 2906.2 2538.09C3096.11 2494.18 2859.31 2357.72 3068.31 2281.72C3203.31 2232.63 3205.45 2368.72 3199.98 2438.41Z" fill="#E57E5F"/>
<path d="M2917.74 2389.6C3004.79 2199.16 3260.59 2222.22 3199.96 2438.41C3210.79 2290.46 3092.53 2247.68 2985.65 2357.68C3048.08 2401.6 3065.48 2439.15 3043.41 2483.58C3021.35 2528.01 2956.99 2554.01 2905.82 2538.23C2886.04 2522.02 2891.01 2510.76 2912.04 2500.32C2981.77 2465.59 2976.48 2454.25 2943.07 2395.31C2936.33 2383.53 2926.04 2395.97 2917.74 2389.6Z" fill="#8C2505"/>
<path d="M2138.23 2262.16C2065.5 2245.85 2024.15 2216.15 1979.09 2156.78C1889.68 2038.96 1924.6 1900.46 2003.97 1778.87C2067.74 1718.71 2228.09 1681.72 2209.4 1837.22C2199.95 1915.88 2063.09 1930.72 2033.3 1827.23C1786.59 2165.22 2404.59 2474.22 2396.69 1905.5C2411.48 1873.93 2494.35 1923.95 2512.51 1933.57C2582.8 1993.85 2548.07 2130.22 2505.77 2193.95C2386.09 2193.95 2274.59 2292.72 2138.23 2262.16Z" fill="#FCFCFC"/>
<path d="M2078.32 1739.54C2050.48 1748.35 2029.15 1767.98 2005.23 1783.16C2000.79 1784.05 1998.27 1783.16 1999.9 1777.9C2068.1 1692.81 2158.97 1663.49 2262.8 1681.63C2387.8 1703.85 2467.19 1784.42 2516.51 1897.65C2523.92 1914.46 2528.58 1932.38 2534.51 1949.86C2536.66 1956.52 2537.92 1962.67 2527.1 1962.08C2507.29 1933.15 2487.83 1903.79 2467.34 1875.36C2408.84 1793.9 2333.67 1738.5 2232.88 1721.84C2179.93 1713.1 2128.68 1723.1 2078.32 1739.54Z" fill="#501B09"/>
<path d="M756.348 2105.9C702.133 2045.39 713.396 1948.4 736.205 1875.88C763.049 1833.21 846.925 1701.21 965.088 1658.72C1089.88 1613.85 1249.4 1661.6 1284 1740.06C1385.59 1825.45 1405.59 2111.3 1198.59 2192.22C1049.68 2250.43 920.9 2153.22 756.348 2105.9Z" fill="#FCFCFC"/>
<path d="M1284.29 1740.8C1265.93 1719.7 1238.82 1711.18 1217.05 1695.26C1174.62 1680.45 1133.81 1663.56 1086.79 1662.67C988.81 1660.9 910.162 1700.52 839.883 1763.69C813.815 1787.16 794.561 1817.08 766.493 1838.48L739.833 1878.25C735.168 1879.36 731.984 1879.07 734.872 1872.99C814.914 1677.08 1101.94 1504.37 1268.96 1708.96C1276.22 1717.7 1288.59 1725.99 1284.29 1740.8Z" fill="#501B09"/>
<path d="M1518.76 2029.03L1528.98 2022.73C1553.04 2042.73 1553.93 2061.32 1530.97 2070.79C1522.82 2075.45 1512.39 2074.77 1504.91 2069.09C1492.62 2057.44 1512.78 2039.83 1518.76 2029.03Z" fill="#FCC8AA"/>
<path d="M2400.46 1905.95C2423.64 1993.26 2427.96 2056.35 2380.74 2130.77C2348.62 2181.4 2308.9 2211.59 2262.05 2228.16C2170.39 2260.6 2089.77 2231.12 2022.26 2161.14C1925.9 2061.26 1946.2 1886.4 2036.48 1806.04C2066.14 1976.89 2287.42 1849.26 2173.19 1749.98C2221.09 1731.72 2397.59 1806.04 2400.46 1905.95Z" fill="#501B09"/>
<path d="M2251.45 2107.15C2221.9 2124.77 2184.32 2149.42 2109.73 2095.09C2082.85 2075.51 2064.28 2053.92 2044.76 2080.15C2030.33 2099.54 2005.41 2107.08 2036.06 2140.78C2076.93 2185.72 2125.38 2217.24 2178.11 2220.28C2234.62 2223.53 2295.49 2195.3 2340.03 2153.98C2357.24 2136.78 2359.32 2125.01 2340.03 2107.15C2318.19 2086.92 2316.1 2068.61 2251.45 2107.15Z" fill="#934518"/>
<path d="M2400.47 1905.94C2385.57 1870.38 2342.09 1775.22 2173.48 1750.65C2143.34 1733.32 2110.83 1736.95 2078.47 1739.76C2161.56 1696.14 2245.47 1704.81 2325.97 1743.17C2378.57 1768.3 2454.09 1812.72 2511.62 1939.34C2491.79 1936.76 2413.93 1888.33 2400.47 1905.94Z" fill="#DEDEDE"/>
<path d="M910.083 2082.29C858.71 2001.85 882.462 1909.8 917.786 1828.78C926.303 1816.04 925.933 1795.9 947.409 1794.05C1003.09 1842.22 1051.91 1826.3 1067.09 1811.72C1087.3 1792.31 1107.86 1766.5 1084.09 1695.22C1123.85 1676.28 1187.36 1684.61 1216.6 1719.25C1268.96 1758.65 1308.65 1807.3 1320.8 1873.21C1337.61 1964.01 1324.3 2063.89 1250.71 2129.53C1150.42 2218.98 982.423 2195.55 910.083 2082.29Z" fill="#501B09"/>
<path d="M944.595 1796.57C931.783 1803.97 917.787 1828.48 917.787 1828.48C864.176 1800.26 820.386 1823.67 766.49 1838.41C855.387 1715.36 1009.09 1587.22 1217.05 1695.11C1180.69 1702.51 1228.38 1711.33 1216.45 1718.95C1196.99 1708.26 1128.21 1688.63 1084.09 1695.22C1071.87 1702.63 1063.16 1692.37 1053.38 1688.74C1000.5 1668.93 931.215 1705.96 943.484 1767.68C945.188 1777.09 952.075 1786.64 944.595 1796.57Z" fill="#DEDEDE"/>
<path d="M2117.57 1922.09C2120.61 1897.33 2166.77 1891.74 2162.15 1919.79C2161.07 1948.11 2113.78 1951.07 2117.57 1922.09Z" fill="#FCFCFC"/>
<path d="M1222 2111.4C1174.01 2151.17 1123.8 2161.32 1062.19 2146.14C1005.46 2132.21 971.618 2094.3 935.701 2055.12C932.294 2047.27 923.704 2039.64 937.775 2032.91C959.213 2022.11 1006.95 1979.73 1030.27 2004.62C1076.7 2044.31 1128.32 2046.01 1178.01 2013.65C1203.41 1997.06 1220.3 2005.06 1239.33 2019.5C1282.9 2052.34 1259.59 2081.03 1222 2111.4Z" fill="#934518"/>
<path d="M944.604 1796.57C889.588 1671.72 1040.13 1648.81 1084.09 1695.22C1154.9 1796.02 1022.56 1889.32 944.604 1796.57Z" fill="#FCFCFC"/>
<path d="M1076.42 1869.46C1077.91 1898.14 1033.21 1906.71 1023.2 1881.48C1011.09 1850.98 1073.85 1819.9 1076.42 1869.46Z" fill="#FCFCFC"/>
</svg>
