<svg width="1259" height="1259" viewBox="0 0 1259 1259" fill="none" xmlns="http://www.w3.org/2000/svg">
<mask id="mask0_927_3" style="mask-type:alpha" maskUnits="userSpaceOnUse" x="0" y="0" width="1259" height="1259">
<circle cx="629.5" cy="629.5" r="629.5" fill="#D9D9D9"/>
</mask>
<g mask="url(#mask0_927_3)">
<path d="M450.268 483.423C442.4 497.412 421.416 560.361 477.372 600.58C483.12 617.363 494.189 633.347 507.569 647.792M450.268 483.423C450.268 384.445 471.252 254.355 612.015 249.983C655.147 247.296 747.307 272.783 777.882 349.223C788.44 375.616 798.289 423.438 794.109 439.707M450.268 483.423C366.459 331.237 473.119 161.122 657.978 161.122C689.453 161.122 783.878 182.105 771.139 250.313C864.813 250.313 844.536 415.373 798.242 466.811M798.242 466.811C837.586 449.325 833.214 522.766 829.717 530.635C826.22 538.504 813.98 590.088 789.499 587.465C786.566 593.722 781.708 601.904 775.406 611.071M798.242 466.811C773.745 477.699 787.211 466.554 794.109 439.707M794.109 439.707L751.03 423.97M751.03 423.97C730.921 413.187 678.637 399.14 630.375 429.216M751.03 423.97C758.398 503.532 696.309 501.648 663.599 497.412C630.375 493.108 633.873 449.908 630.375 429.216M630.375 429.216C620.583 429.216 601.232 429.216 592.78 429.216M592.78 429.216C570.923 418.141 515.492 404.735 468.629 439.707C468.629 496.537 487.864 516.646 561.305 503.532C581.589 498.636 590.74 451.948 592.78 429.216ZM775.406 611.071C753.529 642.891 714.241 686.583 677.588 702.873C639.818 719.66 605.312 715.114 592.78 710.742C571.847 700.373 534.892 677.292 507.569 647.792M775.406 611.071L778.88 653.038M650.484 932.816C694.199 831.396 732.668 814.784 753.652 785.058C770.438 761.277 779.298 709.285 781.63 686.261L778.88 653.038M650.484 932.816C793.87 956.597 875.18 821.487 897.912 750.96M650.484 932.816C574.419 924.364 400.782 888.925 314.75 814.784M650.484 932.816C578.585 925.248 523.116 778.791 510.336 686.261M650.484 932.816C592.31 918.478 353.22 721.234 422.29 721.234C491.36 721.234 483.33 699.871 510.336 686.261M507.569 647.792C507.477 653.668 507.705 660.116 508.237 667.027M778.88 653.038L791.247 664.404C799.116 662.947 816.952 661.781 825.345 668.775C833.738 675.77 844.58 688.593 848.951 694.13C863.814 703.748 894.415 728.578 897.912 750.96M897.912 750.96C1089.4 813.193 1179.56 1115.06 1179.56 1378.9C985.592 1378.9 283.275 1378.9 128.148 1378.9C128.149 1157.83 128.148 973.477 314.75 814.784M314.75 814.784C289.395 733.474 364.586 707.245 399.558 695.005C427.536 685.212 483.668 672.273 508.237 667.027M508.237 667.027C508.704 673.105 509.407 679.541 510.336 686.261" stroke="white" stroke-width="15"/>
</g>
</svg>
